<?xml version="1.0" standalone="no"?>
<!DOCTYPE svg PUBLIC "-//W3C//DTD SVG 20010904//EN"
 "http://www.w3.org/TR/2001/REC-SVG-20010904/DTD/svg10.dtd">
<svg version="1.0" xmlns="http://www.w3.org/2000/svg"
 width="300.000000pt" height="300.000000pt" viewBox="0 0 300.000000 300.000000"
 preserveAspectRatio="xMidYMid meet">
<metadata>
Created by potrace 1.10, written by Peter Selinger 2001-2011
</metadata>
<g transform="translate(0.000000,300.000000) scale(0.100000,-0.100000)"
fill="#000000" stroke="none">
<path d="M1745 2283 c-22 -53 -40 -100 -40 -105 0 -5 34 -24 75 -42 63 -29 76
-31 84 -19 10 19 2 26 -56 48 -50 19 -57 29 -35 59 13 17 15 17 56 -3 23 -12
46 -19 51 -16 22 13 8 33 -35 49 -47 19 -51 25 -35 57 10 18 12 18 61 -6 49
-25 69 -26 69 -2 0 10 -132 77 -150 77 -3 0 -23 -44 -45 -97z"/>
<path d="M1359 2341 c-36 -37 -38 -79 -5 -118 21 -24 32 -28 75 -28 60 0 93
22 66 45 -12 10 -19 10 -27 2 -17 -17 -63 -15 -78 3 -15 18 -7 22 68 28 29 2
55 7 58 10 9 9 -25 66 -45 77 -37 19 -81 12 -112 -19z m97 -18 c16 -17 16 -18
-7 -24 -42 -12 -69 -10 -69 6 0 15 26 34 47 35 6 0 19 -8 29 -17z"/>
<path d="M1210 2323 c-91 -33 -73 -173 22 -173 39 0 98 33 98 55 0 26 -30 30
-47 6 -21 -30 -63 -25 -82 11 -14 24 -14 28 4 48 14 16 27 20 46 16 33 -6 62
20 38 35 -15 9 -55 11 -79 2z"/>
<path d="M1018 2225 c-15 -8 -29 -24 -33 -34 -3 -11 -12 -18 -19 -15 -7 3 -18
-2 -25 -9 -9 -12 -3 -27 36 -81 49 -67 60 -75 81 -54 9 9 3 23 -24 60 -35 47
-35 49 -20 73 26 40 46 34 93 -31 23 -34 33 -40 46 -32 26 14 21 30 -31 86
-52 56 -62 59 -104 37z"/>
<path d="M1926 2163 c-52 -62 -54 -68 -40 -85 16 -16 18 -15 48 22 34 44 68
59 91 40 24 -20 18 -43 -21 -89 -34 -40 -36 -44 -20 -59 15 -16 19 -14 56 28
22 25 43 56 46 69 10 34 -15 74 -52 86 -17 6 -29 15 -27 21 2 6 -3 16 -11 23
-11 10 -24 -1 -70 -56z"/>
<path d="M839 2051 c-59 -60 -24 -151 59 -151 44 0 86 36 97 83 6 23 4 27 -14
27 -14 0 -21 -6 -21 -18 0 -25 -31 -52 -59 -52 -20 0 -18 4 21 56 40 54 41 57
23 70 -31 23 -74 17 -106 -15z m71 -18 c0 -10 -44 -73 -51 -73 -16 0 -18 35
-4 56 14 22 55 34 55 17z"/>
<path d="M2180 2065 c-9 -11 -16 -12 -26 -4 -18 15 -36 1 -29 -22 4 -10 2 -19
-4 -19 -19 0 -81 -62 -81 -80 0 -11 11 -32 24 -47 22 -25 25 -26 31 -10 4 9 2
24 -4 31 -10 11 -5 21 21 45 38 36 46 37 64 14 10 -14 15 -15 25 -6 10 10 9
16 -2 29 -11 14 -11 18 5 29 16 12 17 16 3 35 -13 18 -16 19 -27 5z"/>
<path d="M676 1945 c-20 -20 -20 -29 -1 -45 12 -10 18 -10 30 0 19 16 19 34 1
49 -11 9 -18 8 -30 -4z"/>
<path d="M2196 1906 c-55 -23 -101 -47 -103 -52 -1 -5 1 -15 6 -22 7 -11 18
-10 59 8 59 26 92 16 92 -26 0 -21 -10 -29 -55 -50 -57 -27 -60 -30 -46 -53 7
-11 19 -10 66 10 88 36 107 88 53 138 l-21 20 27 11 c15 5 31 10 36 10 14 0
21 17 14 34 -8 22 -15 20 -128 -28z"/>
<path d="M740 1900 c-9 -18 -2 -24 69 -60 79 -39 81 -40 91 -19 7 11 10 21 8
22 -2 1 -38 19 -80 39 -75 36 -78 37 -88 18z"/>
<path d="M716 1809 c-19 -17 -29 -37 -33 -66 -5 -37 -2 -45 25 -73 41 -40 83
-41 123 -1 22 23 29 39 29 69 0 46 -20 71 -39 48 -9 -11 -9 -20 -2 -34 13 -24
-11 -62 -40 -62 -55 0 -80 54 -39 83 16 11 18 19 12 37 l-8 22 -28 -23z"/>
<path d="M2270 1689 c-74 -9 -87 -15 -99 -51 -9 -24 -8 -38 3 -59 8 -16 11
-31 6 -34 -4 -3 -6 -14 -3 -24 4 -17 12 -19 57 -15 108 11 117 13 114 36 -3
20 -8 22 -65 19 -53 -2 -63 0 -72 18 -14 25 -14 27 5 45 9 9 33 16 57 16 54 0
74 12 61 37 -8 16 -17 18 -64 12z"/>
<path d="M605 1598 c-4 -10 -7 -40 -7 -66 0 -38 5 -51 27 -69 47 -41 86 -22
107 53 18 67 42 82 58 39 7 -18 6 -37 -4 -65 -12 -34 -11 -40 2 -45 24 -9 35
10 40 70 6 72 -14 105 -63 105 -40 0 -60 -23 -71 -83 -3 -21 -13 -41 -22 -44
-20 -8 -45 26 -37 52 17 62 17 62 -4 68 -14 3 -22 -1 -26 -15z"/>
<path d="M2171 1459 c-17 -49 -13 -94 8 -113 30 -27 54 -16 79 37 12 26 27 47
32 47 13 0 13 -63 0 -76 -8 -8 -6 -15 5 -24 21 -17 31 -3 40 53 9 48 -14 87
-50 87 -20 0 -30 -10 -48 -46 -12 -26 -26 -47 -32 -48 -17 -2 -17 33 -1 66 13
25 14 33 4 40 -21 13 -25 10 -37 -23z"/>
<path d="M2133 1304 c-8 -21 1 -27 83 -57 74 -26 84 -26 84 3 0 13 -21 25 -74
44 -87 31 -85 30 -93 10z"/>
<path d="M812 1238 c-65 -37 -77 -57 -62 -102 14 -45 56 -84 72 -68 9 9 7 17
-10 35 -22 23 -29 61 -13 71 4 3 19 -11 32 -32 27 -42 66 -53 93 -26 22 21 14
61 -17 89 -12 11 -22 26 -23 33 -3 40 -3 40 -72 0z m83 -74 c0 -29 -30 -28
-50 2 -14 22 -15 28 -4 35 19 11 54 -13 54 -37z"/>
<path d="M2336 1245 c-20 -20 -20 -29 -1 -45 12 -10 18 -10 30 0 19 16 19 34
1 49 -11 9 -18 8 -30 -4z"/>
<path d="M2090 1208 c-11 -18 -18 -39 -15 -45 2 -7 -2 -13 -9 -13 -12 0 -31
-29 -24 -35 22 -19 110 -65 125 -65 26 0 62 35 79 76 18 42 18 44 -4 44 -11 0
-24 -13 -33 -32 -9 -21 -22 -34 -36 -36 -28 -4 -28 -5 -3 43 24 47 25 59 4 79
-26 27 -62 20 -84 -16z m58 -34 c4 -25 -21 -59 -36 -50 -16 9 -15 49 0 64 16
16 32 10 36 -14z"/>
<path d="M940 1107 c0 -7 5 -18 10 -23 15 -15 4 -35 -32 -63 -30 -24 -31 -24
-44 -6 -20 28 -41 5 -22 -24 11 -19 11 -23 -5 -32 -18 -10 -18 -12 -1 -30 16
-18 19 -18 35 -3 11 9 19 12 23 5 10 -16 37 -1 31 18 -3 11 8 29 30 51 40 38
46 77 17 103 -22 20 -42 22 -42 4z"/>
<path d="M2004 1080 c-40 -27 -66 -77 -53 -102 17 -31 39 -33 85 -8 45 25 66
21 48 -7 -8 -13 -33 -32 -52 -39 -7 -3 11 -34 20 -34 20 0 78 68 78 92 0 24
-27 58 -45 58 -5 0 -26 -12 -46 -26 -42 -29 -66 -25 -48 7 5 11 21 25 35 31
24 11 32 32 16 42 -5 3 -21 -4 -38 -14z"/>
<path d="M1007 972 c-20 -30 -37 -64 -37 -75 0 -28 63 -87 94 -87 36 0 33 23
-6 41 -21 9 -34 22 -36 37 -4 27 4 28 43 2 52 -34 95 -19 95 34 0 24 -37 56
-65 56 -15 0 -23 5 -20 13 3 6 -3 17 -13 23 -15 10 -23 4 -55 -44z m101 -24
c19 -19 14 -38 -10 -38 -29 1 -62 25 -53 39 8 15 48 14 63 -1z"/>
<path d="M1848 954 c-16 -8 -28 -19 -28 -25 0 -15 29 -22 43 -11 16 13 26 6
55 -35 22 -31 22 -32 3 -45 -28 -20 -11 -49 18 -31 17 11 22 10 33 -6 12 -17
16 -17 32 -5 16 11 17 16 6 29 -9 11 -10 19 -2 27 15 15 3 40 -17 34 -10 -3
-27 10 -46 37 -34 47 -57 54 -97 31z"/>
<path d="M1200 882 c-21 -10 -42 -32 -53 -54 -36 -74 2 -133 109 -168 36 -12
66 -20 67 -19 7 12 68 211 65 213 -6 6 -132 46 -142 46 -6 0 -27 -8 -46 -18z
m130 -56 c0 -7 -10 -40 -21 -75 -16 -46 -25 -61 -36 -57 -8 3 -18 6 -23 6 -19
0 -70 53 -70 74 0 28 26 65 53 75 26 10 97 -7 97 -23z"/>
<path d="M1614 855 c-8 -21 2 -45 19 -45 21 0 38 25 31 44 -8 20 -43 21 -50 1z"/>
</g>
</svg>
